<svg width="160" height="160" viewBox="0 0 160 160" fill="none" xmlns="http://www.w3.org/2000/svg">
<path fill-rule="evenodd" clip-rule="evenodd" d="M153 110.719C153 124.683 141.839 136 128.068 136C115.304 136 104.774 126.264 103.314 113.724H23.8177C17.8448 113.724 13 108.812 13 102.755V50.9695C13 44.9127 17.8448 40 23.8177 40H120.149C126.122 40 130.966 44.9127 130.966 50.9695L130.955 85.6165C143.366 87.0634 153 97.7525 153 110.719ZM120.149 45.8998H23.8177C21.0635 45.8998 18.8292 48.1654 18.8292 50.9583V102.755C18.8292 105.548 21.0635 107.814 23.8177 107.814H103.303C104.608 96.1935 113.689 86.9625 125.137 85.6053L125.148 50.9583C125.137 48.1654 122.903 45.8998 120.149 45.8998ZM128.068 91.2695C122.947 91.2695 118.124 93.2885 114.507 96.9674C110.879 100.646 108.888 105.525 108.888 110.719C108.888 115.912 110.879 120.802 114.507 124.47C118.136 128.149 122.947 130.168 128.068 130.168C133.19 130.168 138.012 128.149 141.629 124.47C145.257 120.791 147.248 115.912 147.248 110.719C147.248 105.525 145.257 100.635 141.629 96.9674C138.001 93.2885 133.19 91.2695 128.068 91.2695ZM116.012 66.4928H81.2468C79.643 66.4928 78.3378 65.1693 78.3378 63.5429C78.3378 61.9166 79.643 60.5931 81.2468 60.5931H116.023C117.627 60.5931 118.932 61.9166 118.932 63.5429C118.921 65.1693 117.627 66.4928 116.012 66.4928ZM63.9805 98.3694H29.8018C26.4171 98.3694 24.227 94.7241 25.7534 91.6397C29.6469 83.7771 37.6551 78.3708 46.8911 78.3708C56.1271 78.3708 64.1353 83.7659 68.0288 91.6397C69.5442 94.7354 67.3652 98.3694 63.9805 98.3694ZM46.8801 73.1665C42.0353 73.1665 38.0976 69.1735 38.0976 64.2608C38.0976 59.3368 42.0243 55.3551 46.8801 55.3551C51.7248 55.3551 55.6626 59.3481 55.6626 64.2608C55.6626 69.1847 51.7359 73.1665 46.8801 73.1665ZM81.2468 74.075H109.298C110.902 74.075 112.207 75.3985 112.207 77.0249C112.207 78.6512 110.902 79.9748 109.298 79.9748H81.2468C79.643 79.9748 78.3378 78.6512 78.3378 77.0249C78.3267 75.3985 79.6319 74.075 81.2468 74.075ZM81.2468 87.5794H96.2014C97.8053 87.5794 99.1105 88.9029 99.1105 90.5293C99.1105 92.1556 97.8053 93.4791 96.2014 93.4791H81.2468C79.643 93.4791 78.3378 92.1556 78.3378 90.5293C78.3267 88.9029 79.6319 87.5794 81.2468 87.5794Z" fill="#CCCCCC"/>
<path fill-rule="evenodd" clip-rule="evenodd" d="M137.234 100.879C138.397 102.05 138.397 103.95 137.234 105.121L122.34 120.121C121.177 121.293 119.291 121.293 118.128 120.121C116.965 118.95 116.965 117.05 118.128 115.879L133.021 100.879C134.185 99.7071 136.071 99.7071 137.234 100.879Z" fill="#CCCCCC"/>
<path fill-rule="evenodd" clip-rule="evenodd" d="M118.128 100.879C119.291 99.7071 121.177 99.7071 122.34 100.879L137.234 115.879C138.397 117.05 138.397 118.95 137.234 120.121C136.071 121.293 134.185 121.293 133.021 120.121L118.128 105.121C116.965 103.95 116.965 102.05 118.128 100.879Z" fill="#CCCCCC"/>
</svg>
