<svg width="500" height="500" viewBox="0 0 500 500" fill="none" xmlns="http://www.w3.org/2000/svg">
<g clip-path="url(#clip0_1_7756)">
<rect width="500" height="500" fill="white"/>
<rect width="500" height="500" fill="#F3F6FC"/>
<path fill-rule="evenodd" clip-rule="evenodd" d="M297.764 257.114C297.764 282.932 276.834 303.862 251.016 303.862C225.198 303.862 204.268 282.932 204.268 257.114C204.268 231.296 225.198 210.366 251.016 210.366C276.834 210.366 297.764 231.296 297.764 257.114ZM275.406 257.114C275.406 270.584 264.487 281.504 251.016 281.504C237.546 281.504 226.626 270.584 226.626 257.114C226.626 243.644 237.546 232.724 251.016 232.724C264.487 232.724 275.406 243.644 275.406 257.114Z" fill="#DCE5F6"/>
<path fill-rule="evenodd" clip-rule="evenodd" d="M293.221 144.309H208.538L197.359 166.667H157.52C144.611 166.667 134.146 177.132 134.146 190.041V331.301C134.146 344.21 144.611 354.675 157.52 354.675H344.512C357.421 354.675 367.886 344.21 367.886 331.301V190.041C367.886 177.132 357.421 166.667 344.512 166.667H305.417L293.221 144.309ZM211.177 189.025L222.356 166.667H279.949L292.144 189.025H344.512C345.073 189.025 345.528 189.48 345.528 190.041V331.301C345.528 331.862 345.073 332.317 344.512 332.317H157.52C156.959 332.317 156.504 331.862 156.504 331.301V190.041C156.504 189.48 156.959 189.025 157.52 189.025H211.177Z" fill="#DCE5F6"/>
<path fill-rule="evenodd" clip-rule="evenodd" d="M119.715 150.727L361.585 360.154L376.22 343.252L134.35 133.825L119.715 150.727Z" fill="#F3F6FC"/>
<path fill-rule="evenodd" clip-rule="evenodd" d="M119.715 164.878L361.585 374.305L376.22 357.402L134.35 147.976L119.715 164.878Z" fill="#DCE5F6"/>
</g>
<defs>
<clipPath id="clip0_1_7756">
<rect width="500" height="500" fill="white"/>
</clipPath>
</defs>
</svg>
